<svg xml:space="preserve" xmlns="http://www.w3.org/2000/svg" viewBox="16.32 33.05 272.17 157.77"><defs><filter style="color-interpolation-filters:sRGB" id="a" x="0" y="0" width="1" height="1"><feColorMatrix type="hueRotate" values="180" result="color1"/><feColorMatrix values="-1 0 0 0 1 0 -1 0 0 1 0 0 -1 0 1 -0.21 -0.72 -0.07 2 0" result="color2"/></filter></defs><path style="fill:#000;stroke-width:.0613218;filter:url(#a)" d="M150.67 194.034c-.843-.346-1.726-.712-1.962-.813l-.43-.184-.03-39.24-.03-39.241-.143-.29c-.16-.326-.415-.565-.777-.73-.236-.108-1.326-.112-29.634-.113-16.164-.001-29.388-.018-29.388-.039 0-.02-.11-.676-.244-1.456-.617-3.588-1.353-8.504-1.655-11.047a66.642 66.642 0 0 0-.233-1.834l-.045-.24-5.029-3.088a6848.84 6848.84 0 0 0-8.437-5.173l-3.41-2.084-.76.068c-.988.089-3.85.089-4.87 0a35.284 35.284 0 0 1-3.068-.394l-.733-.133-.534-1.533a272.34 272.34 0 0 0-.551-1.578c-.01-.025-.77.38-1.69.903l-1.67.948-.966-.402a36.908 36.908 0 0 1-4.04-2.036c-.818-.49-2.24-1.427-2.567-1.69l-.182-.147.38-2.165c.21-1.19.37-2.176.355-2.19-.014-.014-.94.35-2.059.808-1.198.491-2.066.815-2.113.788-.6-.343-8.035-7.797-8.113-8.134-.01-.042.354-.84.809-1.774.454-.933.802-1.696.774-1.696-.061 0-3.783.603-3.941.639-.078.017-.323-.248-.893-.967a82.831 82.831 0 0 1-8.593-13.301l-.566-1.089h.452c.655 0 3.127.167 4.587.31 3.9.38 7.631 1.013 11.41 1.935l1.63.398.448 2.19c.246 1.203.465 2.221.486 2.261.021.04.563-.682 1.232-1.645.657-.945 1.217-1.732 1.244-1.748.2-.124 7.13 2.488 10.27 3.871l.919.405.045 2.006a67.34 67.34 0 0 0 .06 2.022c.009.01.912-.421 2.006-.956l1.99-.973.703.424c2.074 1.256 4.077 2.763 5.536 4.166l.595.573-.302 1.747c-.167.962-.292 1.76-.279 1.773.013.013.796-.012 1.74-.055 1.39-.065 1.735-.065 1.811-.002.157.131 1.342 1.943 1.838 2.812a30.615 30.615 0 0 1 2.13 4.55c.237.635.365.898.478.978.223.157 10.607 6.624 10.637 6.624.014 0 .01-1.276-.009-2.836-.079-6.5.303-13.325 1.117-19.955.204-1.661.517-3.938.65-4.716l.063-.373 1.054.453c8.297 3.573 17.99 5.157 26.927 4.402 11.946-1.01 23.057-5.733 32.221-13.697 1.332-1.158 2.993-2.756 4.053-3.898l.948-1.022.762.815a58.934 58.934 0 0 0 7.965 7.082l.874.642v20.434c0 22.47-.03 20.786.372 21.271.105.128.306.293.446.368l.255.136 13.7.031 13.698.03.168.614c.223.816.304 1.023.68 1.755 1.188 2.315 3.485 3.996 6.062 4.44.68.116 2.096.132 2.73.03 3.112-.499 5.677-2.618 6.708-5.54a8.698 8.698 0 0 0 .24-4.884c-.773-3.176-3.378-5.64-6.655-6.299-.796-.16-2.478-.145-3.271.028-2.422.53-4.347 1.915-5.632 4.052a8.923 8.923 0 0 0-.902 2.233l-.11.475H164.99V55.972l.966.568a55.65 55.65 0 0 0 21.233 7.239c8.189 1.033 16.615.206 24.682-2.422 1.771-.578 3.886-1.384 5.193-1.98l.471-.215.035.163c.185.878.795 5.69 1.073 8.473.527 5.28.706 9.075.708 14.995v4.417l2.852-1.777 5.51-3.436 2.657-1.659.291-.797a30.858 30.858 0 0 1 3.455-6.7l.551-.812h.284c.155-.001.938.032 1.738.072.8.04 1.475.054 1.498.03.024-.023-.091-.83-.255-1.793l-.298-1.752.55-.51a32.885 32.885 0 0 1 4.149-3.272c1.03-.689 2.04-1.299 2.15-1.299.046 0 .954.428 2.017.95 1.063.524 1.95.951 1.972.951.02 0 .038-.906.038-2.014v-2.014l.23-.095c.127-.053.685-.294 1.242-.537 2.1-.916 6.567-2.637 8.662-3.336.565-.189 1.05-.343 1.077-.343.027 0 .597.787 1.265 1.749.67.962 1.226 1.74 1.237 1.728.012-.011.214-.965.45-2.119.237-1.153.447-2.164.467-2.244.034-.136.148-.174 1.55-.519a79.216 79.216 0 0 1 12.519-2.06c1.41-.12 3.91-.249 3.957-.203.045.045-.392.922-1.246 2.503a81.358 81.358 0 0 1-6.504 10.148c-1.264 1.685-2.098 2.7-2.21 2.689-.054-.006-.963-.153-2.02-.328-1.056-.175-1.932-.306-1.947-.291-.015.014.349.791.808 1.726.825 1.683.833 1.702.72 1.835-1.167 1.382-6.633 6.851-7.913 7.917l-.197.164-2.033-.834c-1.119-.459-2.048-.82-2.065-.803-.017.018.138.993.344 2.167.207 1.175.376 2.152.376 2.171 0 .114-2.183 1.534-3.508 2.282-1.311.74-3.878 1.93-4.218 1.955-.051.004-.804-.398-1.674-.894-.87-.496-1.61-.908-1.645-.915-.035-.009-.306.682-.6 1.533-.296.852-.549 1.56-.563 1.573-.048.045-1.924.34-2.755.434-1.408.158-3.333.22-4.813.154a34.995 34.995 0 0 1-1.595-.095c-.236-.034-.374.044-3.893 2.196-6.245 3.82-13.397 8.214-13.45 8.263-.027.025-.144.815-.258 1.756-.754 6.216-2.198 14.712-3.47 20.412-3.088 13.844-8.058 25.835-15.035 36.27-.367.55-.454.72-.395.775.042.038 8.755 5.475 19.362 12.081 13.017 8.108 19.377 12.102 19.565 12.289.738.73.932 1.95.463 2.902-.249.503-2.564 3.435-2.89 3.66-.556.382-.797.455-1.5.457-.573 0-.684-.017-.995-.163-.192-.09-1.6-.93-3.127-1.865a21193.7 21193.7 0 0 1-26.146-16.066c-5.5-3.384-10.042-6.169-10.093-6.189-.067-.026-.352.265-.975.994-5.743 6.718-12.516 12.7-20.087 17.74-1.05.7-3.402 2.195-3.993 2.539-.061.035-.077-4.517-.077-22.68v-22.723l4.575.016 4.575.016.14.555a8.435 8.435 0 0 0 4.39 5.457c1.154.58 2.114.821 3.467.869 1.094.038 1.683-.022 2.583-.263 3.136-.84 5.578-3.52 6.113-6.706.125-.745.127-2.203.004-2.924-.193-1.133-.678-2.332-1.349-3.333-.421-.63-1.391-1.623-2.038-2.086-.66-.474-1.824-1.046-2.56-1.259-1.623-.468-3.568-.433-5.121.091-2.679.905-4.8 3.188-5.487 5.907l-.142.564-5.572.03c-5.11.029-5.587.04-5.763.137-.318.174-.572.417-.715.684l-.135.253-.03 24.617-.031 24.618-1.166.634c-1.126.613-4.716 2.417-5.687 2.858l-.475.216v-47.241c0-33.918-.02-47.33-.067-47.554a1.5 1.5 0 0 0-.785-.994l-.327-.171H125.45l-.041-.26c-.067-.42-.436-1.465-.714-2.018-1.195-2.383-3.515-4.112-6.117-4.559-.668-.114-2.114-.131-2.743-.031-1.891.3-3.567 1.176-4.86 2.543-1.105 1.167-1.821 2.54-2.17 4.16-.192.896-.192 2.501.001 3.398a8.525 8.525 0 0 0 6.588 6.589c.884.19 2.563.192 3.422.003 2.42-.53 4.416-1.972 5.647-4.078.347-.592.735-1.557.876-2.177l.116-.505h29.966l-.015 47.131-.016 47.132-.367.151c-1.505.621-2.642 1.063-2.724 1.06-.053-.004-.787-.288-1.63-.634zm-6.929-3.096a107.105 107.105 0 0 1-4.737-2.476l-1.12-.619-.002-30.634c-.003-24.771-.018-30.676-.081-30.854a1.484 1.484 0 0 0-.73-.82l-.314-.156H114.05l-.135-.551c-.788-3.214-3.391-5.651-6.722-6.295-.734-.142-2.243-.144-3.008-.004-3.613.659-6.382 3.553-6.9 7.213-.093.652-.038 2.26.098 2.888.395 1.818 1.413 3.532 2.777 4.674 1.436 1.203 2.935 1.833 4.785 2.011 2.299.222 4.603-.543 6.426-2.134 1.211-1.057 2.263-2.867 2.602-4.475l.068-.322h20.778V186.025l-.445-.274c-8.496-5.245-16.46-12.072-22.94-19.668-.576-.673-.683-.772-.782-.718-.063.033-3.999 2.452-8.747 5.373a22939.325 22939.325 0 0 1-27.414 16.847c-1.528.936-2.908 1.761-3.066 1.834-.237.108-.404.132-.933.133-.594 0-.675-.014-1.045-.19a3.314 3.314 0 0 1-.628-.388c-.341-.3-2.555-3.17-2.77-3.59-.175-.345-.187-.412-.187-1.046 0-.66.006-.69.233-1.149.166-.336.324-.55.552-.748.175-.152 8.915-5.632 19.42-12.177a35044.834 35044.834 0 0 0 19.22-11.977c.11-.073.072-.148-.651-1.24-3.623-5.476-6.726-11.423-9.26-17.747-2.296-5.732-4.155-11.854-5.659-18.642-.321-1.45-.828-3.936-.828-4.063 0-.102 1.38-.107 28.146-.107h28.147v37.56c0 20.657-.02 37.557-.046 37.555a39.75 39.75 0 0 1-1.395-.664zm42.126-45.937a5.464 5.464 0 0 1-4.572-3.634 5.068 5.068 0 0 1-.28-2.068c.203-3.68 3.927-6.055 7.4-4.717 2.209.85 3.675 3.304 3.371 5.642-.336 2.585-2.27 4.485-4.86 4.773-.326.037-.6.063-.61.058a9.184 9.184 0 0 0-.449-.054zm-81.075-12.779c-2.842-.543-4.723-2.992-4.486-5.842.135-1.632 1.05-3.137 2.462-4.053a5.384 5.384 0 0 1 6.664.66c1.114 1.089 1.655 2.362 1.655 3.894 0 1.358-.448 2.544-1.358 3.598-.637.737-1.712 1.388-2.72 1.648-.631.163-1.636.206-2.217.095zm11.324-29.252c-2.723-.577-4.555-2.924-4.397-5.634.082-1.418.655-2.632 1.718-3.642.834-.792 1.888-1.279 3.109-1.435 1.202-.155 2.57.195 3.67.938.442.298 1.24 1.149 1.516 1.618.49.831.746 1.662.788 2.569.119 2.502-1.491 4.739-3.933 5.465-.666.198-1.836.255-2.471.12zm81.897-2.92a5.403 5.403 0 0 1-3.13-1.618 5.33 5.33 0 0 1-1.37-5.094 5.432 5.432 0 0 1 4.94-4.06c3.238-.178 5.906 2.51 5.7 5.742-.175 2.758-2.405 4.934-5.188 5.06-.322.016-.75.002-.952-.03z" transform="matrix(1.05666 0 0 1.05666 -8.636 -14.91)"/></svg>