<svg height="800" width="800" xmlns="http://www.w3.org/2000/svg" viewBox="0 0 512 512" xml:space="preserve"><path fill="#a6192e" d="M473.6 17.067H38.4c-21.333 0-38.4 17.067-38.4 38.4v298.667c0 21.333 17.067 38.4 38.4 38.4h163.84l-12.8 51.2h-1.707c-23.893 0-42.667 18.773-42.667 42.667 0 5.12 3.413 8.533 8.533 8.533h204.8c5.12 0 8.533-3.413 8.533-8.533 0-23.893-18.773-42.667-42.667-42.667h-1.707l-12.8-51.2H473.6c21.333 0 38.4-17.067 38.4-38.4V55.467c0-21.334-17.067-38.4-38.4-38.4zm-456.533 38.4c0-11.947 9.387-21.333 21.333-21.333h435.2c11.947 0 21.333 9.387 21.333 21.333V307.2H17.067V55.467zm331.946 422.4H163.84c3.413-10.24 12.8-17.067 23.893-17.067H325.12c11.093 0 20.48 6.827 23.893 17.067zm-44.373-34.134h-97.28l12.8-51.2h71.68l12.8 51.2zm190.293-89.6c0 11.947-9.387 21.333-21.333 21.333H38.4c-11.947 0-21.333-9.387-21.333-21.333v-29.867h477.867v29.867z"/><path fill="#a6192e" d="M426.667 264.533h-128c-5.12 0-8.533 3.413-8.533 8.533s3.413 8.533 8.533 8.533h128c5.12 0 8.533-3.413 8.533-8.533s-3.413-8.533-8.533-8.533zM179.2 221.867c0-5.12-3.413-8.533-8.533-8.533H85.333c-5.12 0-8.533 3.413-8.533 8.533 0 5.12 3.413 8.533 8.533 8.533h85.333c5.121 0 8.534-3.413 8.534-8.533zM256 230.4h128c5.12 0 8.533-3.413 8.533-8.533 0-5.12-3.413-8.533-8.533-8.533H256c-5.12 0-8.533 3.413-8.533 8.533 0 5.12 3.413 8.533 8.533 8.533zM256 264.533H128c-5.12 0-8.533 3.413-8.533 8.533S122.88 281.6 128 281.6h128c5.12 0 8.533-3.413 8.533-8.533s-3.413-8.534-8.533-8.534zM426.667 110.933h-128c-5.12 0-8.533 3.413-8.533 8.533s3.413 8.533 8.533 8.533h128c5.12 0 8.533-3.413 8.533-8.533s-3.413-8.533-8.533-8.533zM426.667 162.133h-85.333c-5.12 0-8.533 3.413-8.533 8.533 0 5.12 3.413 8.533 8.533 8.533h85.333c5.12 0 8.533-3.413 8.533-8.533 0-5.119-3.413-8.533-8.533-8.533zM256 179.2h17.067c5.12 0 8.533-3.413 8.533-8.533 0-5.12-3.413-8.533-8.533-8.533H256c-5.12 0-8.533 3.413-8.533 8.533 0 5.12 3.413 8.533 8.533 8.533zM256 76.8h128c5.12 0 8.533-3.413 8.533-8.533s-3.413-8.533-8.533-8.533H256c-5.12 0-8.533 3.413-8.533 8.533S250.88 76.8 256 76.8zM213.333 51.2H76.8v136.533h136.533V51.2zm-17.066 119.467h-102.4v-102.4h102.4v102.4z"/></svg>